<?xml version="1.0" standalone="no"?>
<!DOCTYPE svg PUBLIC "-//W3C//DTD SVG 20010904//EN"
 "http://www.w3.org/TR/2001/REC-SVG-20010904/DTD/svg10.dtd">
<svg version="1.0" xmlns="http://www.w3.org/2000/svg"
 width="512.000000pt" height="512.000000pt" viewBox="0 0 512.000000 512.000000"
 preserveAspectRatio="xMidYMid meet">

<g transform="translate(0.000000,512.000000) scale(0.100000,-0.100000)"
fill="#3457D5" stroke="none">
<path d="M2521 4593 c-17 -15 -58 -193 -262 -1128 -132 -610 -243 -1113 -246
-1117 -2 -5 -109 -8 -238 -8 -230 0 -234 0 -249 -22 -9 -12 -16 -32 -16 -43 0
-13 188 -235 508 -600 489 -559 508 -580 542 -580 34 0 53 21 543 580 319 365
507 587 507 600 0 11 -7 31 -16 43 -15 22 -19 22 -249 22 -129 0 -236 4 -239
8 -3 5 -113 508 -246 1118 -254 1170 -247 1144 -300 1144 -10 0 -27 -8 -39
-17z"/>
<path d="M1530 1760 c-11 -11 -20 -31 -20 -44 0 -18 137 -181 500 -598 276
-315 512 -577 525 -582 16 -6 34 -6 50 0 13 5 249 267 525 582 363 417 500
580 500 598 0 13 -9 33 -20 44 -18 18 -33 20 -164 20 l-145 0 -316 -362 c-345
-397 -362 -412 -434 -389 -20 6 -43 17 -51 24 -9 6 -157 173 -329 370 l-313
357 -144 0 c-131 0 -146 -2 -164 -20z"/>
</g>
</svg>
