<?xml version="1.0" standalone="no"?>
<!DOCTYPE svg PUBLIC "-//W3C//DTD SVG 20010904//EN"
 "http://www.w3.org/TR/2001/REC-SVG-20010904/DTD/svg10.dtd">
<svg version="1.0" xmlns="http://www.w3.org/2000/svg"
 width="512.000000pt" height="512.000000pt" viewBox="0 0 512.000000 512.000000"
 preserveAspectRatio="xMidYMid meet">

<g transform="translate(0.000000,512.000000) scale(0.100000,-0.100000)"
fill="#ffffff" stroke="none">
<path d="M2140 4470 c-212 -121 -395 -231 -407 -245 -29 -33 -31 -93 -3 -127
10 -14 177 -115 369 -224 l350 -199 1 -83 c0 -100 17 -144 65 -166 18 -9 38
-16 45 -16 7 0 27 7 45 16 48 22 65 66 65 166 l1 83 350 199 c192 109 359 210
369 224 26 32 26 92 1 124 -11 14 -195 125 -408 246 -302 172 -396 222 -423
222 -27 0 -122 -50 -420 -220z"/>
<path d="M1949 3297 c-154 -43 -239 -160 -239 -332 l0 -84 -307 -3 c-297 -3
-310 -4 -358 -26 -93 -43 -163 -131 -184 -230 -7 -34 -11 -211 -11 -488 0
-477 1 -489 59 -518 38 -20 64 -20 102 0 58 29 59 39 59 532 0 438 1 450 21
475 33 43 73 48 354 45 l260 -3 6 -100 c4 -76 11 -110 28 -143 33 -65 87 -118
149 -149 l57 -28 253 -3 252 -3 0 -110 c0 -126 13 -170 59 -193 38 -20 64 -20
102 0 46 23 59 67 59 193 l0 110 253 3 252 3 57 28 c62 31 116 84 149 149 17
33 24 67 28 143 l6 100 260 3 c281 3 321 -2 354 -45 20 -25 21 -37 21 -475 0
-493 1 -503 59 -532 40 -21 69 -20 108 4 53 32 55 49 51 550 -3 412 -5 460
-22 503 -25 66 -103 149 -168 178 -52 23 -61 24 -360 27 l-308 3 0 84 c0 150
-62 254 -188 313 l-57 27 -585 2 c-443 2 -596 -1 -631 -10z"/>
<path d="M2428 1791 c-76 -24 -115 -50 -177 -116 -92 -97 -133 -228 -111 -354
60 -345 474 -479 719 -234 129 130 162 312 86 481 -28 61 -110 151 -169 186
-97 56 -239 72 -348 37z"/>
<path d="M630 1472 c-64 -24 -160 -122 -183 -187 -25 -73 -26 -566 0 -645 21
-65 89 -142 157 -178 l51 -27 305 0 305 0 50 27 c60 32 114 87 146 148 24 44
24 49 24 350 l0 305 -27 51 c-36 68 -113 136 -178 157 -77 25 -583 24 -650 -1z"/>
<path d="M4021 1474 c-131 -35 -266 -141 -328 -260 -112 -210 -75 -462 92
-629 208 -208 542 -208 750 0 103 103 155 229 155 375 0 242 -163 454 -395
515 -73 19 -202 18 -274 -1z"/>
</g>
</svg>
