<?xml version="1.0" standalone="no"?>
<!DOCTYPE svg PUBLIC "-//W3C//DTD SVG 20010904//EN"
 "http://www.w3.org/TR/2001/REC-SVG-20010904/DTD/svg10.dtd">
<svg version="1.0" xmlns="http://www.w3.org/2000/svg"
 width="512.000000pt" height="512.000000pt" viewBox="0 0 512.000000 512.000000"
 preserveAspectRatio="xMidYMid meet">

<g transform="translate(0.000000,512.000000) scale(0.100000,-0.100000)"
fill="#3457D5" stroke="none">
<path d="M4458 3613 c-8 -10 -101 -153 -206 -319 l-192 -301 -172 58 c-726
243 -1501 293 -2238 145 -563 -113 -1059 -321 -1528 -638 -150 -102 -148 -110
7 -48 215 85 534 171 781 209 258 41 324 45 625 45 253 0 326 -4 465 -23 525
-71 977 -224 1401 -473 91 -53 113 -79 106 -120 -3 -19 -77 -147 -177 -303
-94 -148 -178 -282 -186 -298 -20 -39 -12 -57 27 -57 17 0 451 50 963 111 626
74 938 115 953 125 13 8 25 24 28 37 6 23 -583 1825 -606 1853 -15 19 -33 18
-51 -3z"/>
</g>
</svg>
