<?xml version="1.0" encoding="UTF-8"?>
<svg viewBox="0 0 640 480" xmlns="http://www.w3.org/2000/svg">
 <g fill="#f00">
  <path d="m148.27 103.92c6.5929-6.2511 8.3148 6.1472 10.08 15.262 7.3051 45.796 7.2621 92.25 9.8469 138.43 0.42033 9.6816 0.31204 4.9724 0.35596 14.127l-2.5731 0.209c-1.3824-9.0581-0.76491-4.3832-1.818-14.029-4.1184-45.826-4.3106-92.056-11.614-137.52-1.2115-4.5835-4.9518-17.148-2.3933-16.487l-1.884 0.0098z"/>
  <path d="m152.75 111.77c26.514 5.1063 53.925 2.6258 80.739 2.0133 36.653 0.17304 73.221-2.7697 109.85-3.4664 3.8895 0.54128 7.1502-0.90207 10.681-2.1678l-0.0052-1.6546c-3.5773-1.3048-6.85-2.7913-10.806-2.1738-36.65 0.36507-73.296-1.4327-109.94-0.048286-26.783 0.27532-54.096-1.6681-80.557 3.2234l0.0411 4.2742z"/>
  <path d="m352.98 113.56c4.8165-0.27248 2.1096 19.551 1.6072 27.118-3.5148 44.841 2.5388 89.423 1.6225 134.25l-1.7461 0.1586c-8.221-44.412-7.7279-89.556-7.6406-134.64 0.32596-9.3274-0.52084-24.759 5.6256-30.427l0.5314 3.5352z"/>
  <path d="m164.77 271.72c-0.87434-7.1273 10.636-6.8083 17.62-7.0428 40.227 0.074341 80.461 2.5567 120.6 5.7388 13.957 1.3529 27.942 2.68 41.761 5.4394l-0.11 1.9818c-13.996 0.82883-28.017 0.17197-42.018-0.32327-40.033-1.9134-80.071-4.2935-120.15-4.0596-6.5467 0.13187-13.804 0.38672-15.956-1.7455l-1.7485 0.0111z"/>
  <path d="m237.68 275.65c-2.2922-2.1806 3.964-1.1964 4.0609 6.256 0.91168 10.836-0.6824 21.275-3.2077 31.754l-2.2325 0.038c-2.8173-10.479-4.7542-20.964-4.0489-31.894 0.4635-7.1395 6.3903-17.05 7.7385-7.5782l-2.3103 1.4241z"/>
  <path d="m259.42 271.68c8.6026-0.30121 8.1215 10.758 8.184 19.706-0.23862 4.5884-2.1094 8.7531-3.7439 12.975l-1.7443-0.0193c-1.5138-4.0702-3.1795-8.125-3.9163-12.425-0.82059-7.3084-2.1243-14.088 1.1782-16.229l0.0423-4.0074z"/>
  <path d="m264.68 270.31c4.4796-4.649-3.0195-5.2412 0 0zm2.1443 10.67c0.12836 8.8786 12.041 4.3788 17.389 7.8934 9.6139 3.4687 19.484 17.645 9.8133 26.182-17.081 13.175-40.922 12.124-61.215 9.3181-10.53-1.0505-22.374-7.7974-25.107-17.146-6.559 3.8548-5.2009 12.66 1.0748 16.153 14.811 9.951 33.827 15.772 51.594 12.197 15.839-3.2023 36.876-8.5002 41.007-26.37 0.23676-17.314-18.806-28.46-34.556-28.229z"/>
  <path d="m370.23 125.9c10.147 1.0353 6.4859 23.914 6.0678 37.435-2.7155 55.516-0.89874 111.05-3.6136 166.56-0.41251 8.5208-0.14987 4.4041-0.76386 12.352l-1.6738 0.0508c-1.9324-16.982 0.49008 6.6043-1.3982-12.288-5.5532-55.604-5.2076-111.08-2.5261-166.89 0.31342-13.107-3.2851-37.533 7.5694-38.359l-3.6616 1.1381z"/>
  <path d="m373.7 131.39c-0.24509-4.879 6.8475-4.5679 17.028-4.7232 21.605 0.261 44.039-3.2941 65.075 2.5161l-0.0086 1.451c-21.01 5.9708-43.475 2.6512-65.103 3.2188-10.3-0.0961-17.209 0.22742-16.968-4.6736l-0.0234 2.2109z"/>
  <path d="m451.88 130.22c7.6668-3.6663 6.9035 7.3645 6.7148 20.873-2.797 51.656-6.8997 103.23-11.573 154.75-0.47272 8.2264-1.6062 16.375-2.7216 24.529l-1.6034-0.0664c-0.32825-8.2174-0.67636-16.432-0.34573-24.661 0.3812-51.723 2.2197-103.33 6.9693-154.87 0.78558-11.675 0.15912-19.808 5.2115-20.574l-2.6514 0.0138z"/>
  <path d="m369.65 335.36c16.563-1.152 33.25-1.1581 49.898-0.4837 12.268 0.42108 24.463 1.8185 36.7 2.6908l-0.032 1.5889c-12.252 0.64185-24.471 1.7664-36.736 2.215-16.644 0.6738-33.328 0.6694-49.888-0.48361l0.0584-5.5273z"/>
  <path d="m457.28 129c-1.0871-5.5785 5.5059-7.0778 13.196-11.343 10.782-5.3562 21.726-10.884 32.883-15.237 1.7255-0.22527 3.3421-0.94942 4.9725-1.4126l1.3227 1.5164c-1.1324 1.5424-1.9297 3.6303-3.5889 4.8882-9.6877 7.1595-20.56 12.929-31.367 18.428-8.6623 4.2124-16.6 9.8787-20.558 3.1759l3.14-0.0163z"/>
  <path d="m515.03 99.31c2.9761 24.15-0.28772 48.848-0.74939 73.16-2.0431 35.974-0.6286 72.045-2.6985 108.01l-2.2324 0.0425c-2.9961-35.971-2.4763-72.216-1.6246-108.26 1.4614-24.177 3.4423-48.377 3.9063-72.578l3.3986-0.3694z"/>
  <path d="m457.61 326.09c10.206-16.469 26.362-28.076 41.731-39.516 1.5245-1.1258 3.0491-2.2516 4.5736-3.3773l1.219 1.4225c-1.3994 1.2621-2.7986 2.5243-4.1979 3.7864-13.507 12.477-26.898 25.247-38.67 39.362l-4.6557-1.677z"/>
  <path d="m372.25 126.51c15.528-7.7248 32.149-14.568 48.693-20.335 8.6481-2.7297 4.3516-1.4319 12.887-3.8997l0.7166 1.9476c-8.0149 3.7664-3.9607 1.8673-12.163 5.6969-16.409 7.2256-33.138 15.564-50.177 20.598l0.0424-4.0073z"/>
  <path d="m505.83 102.94c-0.51166 5.8271-27.608 1.7027-36.424 1.7191-12.198 0.42718-24.347-0.80812-36.457-2.6728l0.1049-4.6808c12.186-1.1534 24.396-1.6514 36.587-0.13203 12.811 1.2265 30.926-1.4966 40.891 5.7323l-4.702 0.0343z"/>
  <path d="m453.63 237.58c-0.14719 0.17564-0.29434 0.3513-0.44153 0.52687l-1.8746-0.1859c-0.10217-0.24251-0.20438-0.48491-0.30655-0.7274l2.6227 0.3864z"/>
  <path d="m470.46 216.37c2.4039 4.0099 7.5674 3.5086 11.993 3.8614 4.7074-0.948 6.6964-4.3795 9.5921-7.7265l1.7222 0.9135c-2.9818 4.9-4.6015 9.1884-10.87 10.588-7.4794 0.26566-13.307 0.035172-15.158-7.622l2.7213-0.0141z"/>
  <path d="m461.92 300.78c9.5577-10.176 21.672-17.808 32.787-26.246l1.2219 1.4198c-10.469 9.267-20.401 19.354-31.831 27.436l-2.1778-2.61z"/>
  <path d="m466.34 147.46c8.9319-4.1964 17.768-8.6006 26.77-12.664l0.8933 1.8746c-8.8838 4.6535-18.05 8.7936-26.844 13.576l-0.8192-2.7863z"/>
  <path d="m396.26 295.85c5.0394 2.3086-0.20862-0.45404-0.70776-1.5403l-3.0323-0.4759c-1.3465-5.7803-3.1296-7.948 3.8394-7.3803l-0.0994 9.3965z"/>
  <path d="m410.02 284.76c3.3658 4.7221 2.622 3.2872-2.0663 10.445l-1.6597-0.4797c0.59457-6.9667 1.0282-14.256 7.6013-9.9855l-3.8752 0.0201z"/>
  <path d="m422.35 285.62c1.0769 2.7925-0.58267 4.9179-1.6991 7.4393l-1.6693 0.0086c-1.1199-2.5176-2.7752-4.6301-1.6991-7.4217l5.0675-0.0262z"/>
  <path d="m398.15 306.74c1.2284 2.5661-0.86792 4.3138-2.085 6.5096l-2.0785-0.1829c-0.61392-2.1023-2.4748-4.1656-1.0829-6.2995l5.2464-0.0273z"/>
  <path d="m409.76 304.49c1.7289 2.2607-0.034912 4.282-0.60706 6.562l-1.8908 0.2517c-1.3357-2.3416-3.389-3.8107-2.3908-6.7884l4.8887-0.0254z"/>
  <path d="m422.65 305.9c2.5743-0.66199 5.6248-1.5878 2.8868 5.7655-0.88586 0.56647-1.3946 1.4802-2.0918 2.2204l-1.236-0.1977c-0.39182-0.95908-0.62521-1.9927-1.1792-2.8868-0.02179-5.9214 2.1909-6.8266 4.5414-4.9166l-2.9213 0.0151z"/>
  <path d="m393.17 323.38c-1.6923-0.55124 3.12 1.7395 4.7993 2.3284-0.65976 0.5343-1.3456 1.0351-2.0185 1.5527l-2.2028 0.1167c-0.69943-0.54553-1.3844-1.1093-2.0983-1.6367 1.6807-0.60684 6.494-2.9453 4.7993-2.3782l-3.279 0.017z"/>
  <path d="m409.13 317.61c4.108-2.3645 4.2624 1.6885 3.8398 6.3094-0.63675 0.94113-1.6135 1.5484-2.4215 2.3238l-1.6688 0.0441c-0.8425-0.72278-1.8316-1.2808-2.5243-2.1657 1.9974-2.9301-1.9877-3.8228 2.7486-4.032l0.0262-2.4796z"/>
  <path d="m429.47 323.46c1.5446 2.489-2.1554 2.7348-3.341 3.9978l-1.9565-0.2045c-0.74835-1.0918-4.3208-2.4565-2.5721-3.7525l7.8696-0.0408z"/>
  <path d="m380.01 253c1.7984-4.1531 13.583-1.9618 20.094-1.783 12.865 2.0226 28.164-0.67349 39.686 5.9838l-0.1668 1.5854c-12.478 4.6823-27.049-0.33118-39.998-1.0332-7.5481-0.65857-18.827 0.65216-22.178-4.7396l2.5636-0.0133z"/>
  <path d="m390.98 239.66c8.9742-2.0441 18.823-0.76695 27.893 0.82642l-0.0156 1.4759c-9.0747 1.5884-18.936 2.8742-27.911 0.82651l0.0331-3.1288z"/>
  <path d="m386.63 147.39c7.3435 5.3392 5.2334 16.865 2.8718 25.122l-2.0224 0.1359c-2.665-6.9984-5.3828-17.666-0.88-22.365l0.0306-2.8927z"/>
  <path d="m385.99 149.46c9.242-1.1273 18.818-0.70732 28.166-0.61989 6.4259 0.069641 12.844 0.43315 19.178 1.2692l-0.0131 1.2397c-6.3436 0.83504-12.77 1.1999-19.205 1.2692-9.3434 0.087387-18.917 0.50806-28.153-0.61983l0.0269-2.5385z"/>
  <path d="m437.6 150.77c2.7544 5.4392 1.2904 11.143-0.90405 16.64l-2.2029-0.1128c-1.6073-5.5741-2.434-11.293 0.42413-16.513l2.6829-0.0139z"/>
  <path d="m384.52 167.09c9.6296-0.64598 19.344-0.54727 29.005-0.59723 7.4256-0.1684 14.664 1.2778 21.854 2.8888l-0.0599 1.8883c-7.2344 1.4279-14.511 2.728-21.934 2.4241-9.6372-0.19321-19.322-0.054672-28.928-0.70061l0.0624-5.9034v1.5e-5z"/>
  <path d="m390.38 185.96c2.8486 4.2929 1.3197 8.7457-0.37863 13.4l-1.9672-0.0264c-1.5646-4.6285-3.0346-9.1448-0.21774-13.36l2.5636-0.0133z"/>
  <path d="m387.78 182.9c1.6823-2.8648 6.3425-2.5534 10.105-2.9027 10.947-1.0997 21.604-0.52776 32.289 1.9295l-0.0122 1.2397c-10.688 2.4626-21.349 3.0562-32.306 2.0259-3.2139-0.25317-8.7703 0.36751-8.1681-2.3023l-1.9078 0.0099z"/>
  <path d="m388 196.19c7.2126-0.54845 16.962 0.068939 24.929 0.17065 5.3989-0.21214 10.636 0.87862 15.892 1.872l-0.1265 1.3521c-5.2949 0.20482-10.593 0.45143-15.893 0.25684-8.5526-0.34872-17.653 0.12175-25.91-1.6276l1.1085-2.024z"/>
  <path d="m430.3 189.43c2.4604 4.354 0.73852 8.258-0.71545 12.645l-2.3847 0.0123c-1.4583-4.3849-3.1724-8.28-0.71539-12.638l3.8156-0.0198z"/>
 </g>
</svg>
